<svg width="64" height="64" viewBox="0 0 64 64" fill="none" xmlns="http://www.w3.org/2000/svg">
  <rect width="64" height="64" rx="16" fill="url(#paint0_linear)"/>
  <path d="M32 16L34.5 27.5L46 30L34.5 32.5L32 44L29.5 32.5L18 30L29.5 27.5L32 16Z" fill="white"/>
  <path d="M48 12L49.25 17.75L55 19L49.25 20.25L48 26L46.75 20.25L41 19L46.75 17.75L48 12Z" fill="white" opacity="0.8"/>
  <path d="M16 42L17.25 47.75L23 49L17.25 50.25L16 56L14.75 50.25L9 49L14.75 47.75L16 42Z" fill="white" opacity="0.8"/>
  <defs>
    <linearGradient id="paint0_linear" x1="0" y1="0" x2="64" y2="64" gradientUnits="userSpaceOnUse">
      <stop stop-color="#2563EB"/>
      <stop offset="1" stop-color="#4F46E5"/>
    </linearGradient>
  </defs>
</svg>
